<svg fill="#0064FF" role="img" viewBox="0 0 24 24" xmlns="http://www.w3.org/2000/svg"><title>Paramount+</title><path d="M12 2.437c-6.627 0-12 5.373-12 12 0 2.669.873 5.133 2.346 7.126.503-.218.783-.542.983-.791l2.234-2.858a.467.467 0 0 1 .179-.138l.336-.146 3.674-4.659.534-.417 1.094-1.524a.482.482 0 0 1 .101-.102l.478-.347a.34.34 0 0 1 .398-.004l.578.407c.308.216.557.504.726.84l2.322 4.077c.051.09.09.129.182.174.454.227.732.268 1.33.913.277.304 1.495 1.666 3.203 3.784.236.318.538.588.963.783A11.948 11.948 0 0 0 24 14.437c0-6.627-5.373-12-12-12M3.236 15.1l-.778-.253-.48.662v-.818l-.778-.253.778-.253v-.818l.48.662.778-.253-.48.662Zm-.185 2.676-.252.778-.253-.778h-.818l.661-.481-.253-.777.663.48.66-.48-.252.777.662.481Zm.156-6.195.253.778-.661-.48-.663.48.253-.778-.66-.48h.817l.253-.778.252.777h.818zm1.314-1.76L4.04 9.16l-.778.253.48-.661-.48-.663.778.254.48-.662v.818l.778.253-.777.252Zm2.045-2.862-.253.777-.252-.777h-.818l.662-.48-.253-.778.661.48.661-.48-.252.777.662.48Zm2.577-1.313-.48.661V5.49l-.779-.254.778-.253v-.817l.48.66.78-.253-.481.663.48.66zm3.265-.75.253.778-.661-.48-.662.48.252-.777-.66-.481h.818L12 3.637l.252.778h.818zm2.93.595v.816l-.481-.661-.777.252.48-.662-.48-.662.777.253.48-.66v.817l.779.252zm5.426 8.285.778.253.48-.662v.818l.778.253-.778.253v.818l-.48-.662-.778.253.48-.662z"/></svg>
